# Exported from Wings 3D 1.4.1
mtllib flamejet3.mtl
o cone1
#5 vertices, 5 faces
v 0.50000000 -0.50000000 0.0000000e+0
v 3.0615159e-17 -0.50000000 0.50000000
v -0.50000000 -0.50000000 6.1230318e-17
v -9.1845477e-17 -0.50000000 -0.50000000
v 0.0000000e+0 0.50000000 0.0000000e+0
vn 0.97014250 -0.24253563 -8.0780591e-17
vn 0.0000000e+0 -0.24253563 0.97014250
vn -0.97014250 -0.24253563 8.0780591e-17
vn -2.4234177e-16 -0.24253563 -0.97014250
vn -2.4980018e-16 1.00000000 0.0000000e+0
g cone1_flamejet
usemtl flamejet
s 1
f 1//1 5//5 2//2
f 2//2 3//3 4//4 1//1
f 2//2 5//5 3//3
f 3//3 5//5 4//4
f 4//4 5//5 1//1
