# Exported from Wings 3D 1.4.1
mtllib flamejet2.mtl
o flamejet
#16 vertices, 12 faces
v -2.8867513e-4 -0.57735027 0.57735027
v -2.8867513e-4 0.57735027 0.57735027
v 2.8867513e-4 0.57735027 0.57735027
v 2.8867513e-4 -0.57735027 0.57735027
v -2.8867513e-4 -0.57735027 -0.57735027
v -2.8867513e-4 0.57735027 -0.57735027
v 2.8867513e-4 0.57735027 -0.57735027
v 2.8867513e-4 -0.57735027 -0.57735027
v 0.57735027 -0.57735027 2.8867513e-4
v 0.57735027 0.57735027 2.8867513e-4
v 0.57735027 0.57735027 -2.8867513e-4
v 0.57735027 -0.57735027 -2.8867513e-4
v -0.57735027 -0.57735027 2.8867513e-4
v -0.57735027 0.57735027 2.8867513e-4
v -0.57735027 0.57735027 -2.8867513e-4
v -0.57735027 -0.57735027 -2.8867513e-4
vt 0.0000000e+0 0.0000000e+0
vt 0.0000000e+0 1.00000000
vt 1.00000000 0.0000000e+0
vt 1.00000000 1.00000000
vn 0.0000000e+0 0.0000000e+0 1.00000000
vn 0.0000000e+0 -1.00000000 0.0000000e+0
vn -1.00000000 0.0000000e+0 0.0000000e+0
vn 0.0000000e+0 0.0000000e+0 1.00000000
vn 0.0000000e+0 1.00000000 0.0000000e+0
vn -1.00000000 0.0000000e+0 0.0000000e+0
vn 0.0000000e+0 0.0000000e+0 1.00000000
vn 1.00000000 0.0000000e+0 0.0000000e+0
vn 0.0000000e+0 1.00000000 0.0000000e+0
vn 0.0000000e+0 0.0000000e+0 1.00000000
vn 1.00000000 0.0000000e+0 0.0000000e+0
vn 0.0000000e+0 -1.00000000 0.0000000e+0
vn 0.0000000e+0 -1.00000000 0.0000000e+0
vn 0.0000000e+0 0.0000000e+0 -1.00000000
vn -1.00000000 0.0000000e+0 0.0000000e+0
vn 0.0000000e+0 1.00000000 0.0000000e+0
vn 0.0000000e+0 0.0000000e+0 -1.00000000
vn -1.00000000 0.0000000e+0 0.0000000e+0
vn 1.00000000 0.0000000e+0 0.0000000e+0
vn 0.0000000e+0 1.00000000 0.0000000e+0
vn 0.0000000e+0 0.0000000e+0 -1.00000000
vn 1.00000000 0.0000000e+0 0.0000000e+0
vn 0.0000000e+0 -1.00000000 0.0000000e+0
vn 0.0000000e+0 0.0000000e+0 -1.00000000
vn 1.00000000 0.0000000e+0 0.0000000e+0
vn 0.0000000e+0 -1.00000000 0.0000000e+0
vn -6.1266267e-17 0.0000000e+0 1.00000000
vn 1.00000000 0.0000000e+0 0.0000000e+0
vn 0.0000000e+0 1.00000000 0.0000000e+0
vn -6.1266267e-17 0.0000000e+0 1.00000000
vn 1.00000000 0.0000000e+0 0.0000000e+0
vn 6.1266267e-17 0.0000000e+0 -1.00000000
vn 0.0000000e+0 1.00000000 0.0000000e+0
vn 1.00000000 0.0000000e+0 0.0000000e+0
vn 6.1266267e-17 0.0000000e+0 -1.00000000
vn 0.0000000e+0 -1.00000000 0.0000000e+0
vn 0.0000000e+0 -1.00000000 0.0000000e+0
vn -1.00000000 0.0000000e+0 0.0000000e+0
vn -6.1266267e-17 0.0000000e+0 1.00000000
vn 0.0000000e+0 1.00000000 0.0000000e+0
vn -1.00000000 0.0000000e+0 0.0000000e+0
vn -6.1266267e-17 0.0000000e+0 1.00000000
vn 6.1266267e-17 0.0000000e+0 -1.00000000
vn 0.0000000e+0 1.00000000 0.0000000e+0
vn -1.00000000 0.0000000e+0 0.0000000e+0
vn 6.1266267e-17 0.0000000e+0 -1.00000000
vn 0.0000000e+0 -1.00000000 0.0000000e+0
vn -1.00000000 0.0000000e+0 0.0000000e+0
g flamejet_default
usemtl default
s 1
f 1//1 4//10 3//7 2//4
f 6//17 7//21 8//24 5//14
f 9//26 13//37 16//47 12//36
f 11//33 15//44 14//40 10//29
s 2
f 9//25 12//34 11//31 10//28
f 14//41 15//45 16//48 13//38
s 3
f 1//2 5//13 8//23 4//12
f 3//9 7//20 6//16 2//5
g flamejet_image
usemtl image
s 2
f 2/2/6 6/4/18 5/3/15 1/1/3
f 4/1/11 8/3/22 7/4/19 3/2/8
s 3
f 10/2/30 14/4/42 13/3/39 9/1/27
f 12/1/35 16/3/46 15/4/43 11/2/32
