# Exported from Wings 3D 1.4.1
mtllib lander3.mtl
o cube1
#76 vertices, 148 faces
v -0.95022224 -0.28058462 0.46519246
v -0.49806817 -0.48136320 0.45995272
v -1.04977776 0.51727696 0.45471297
v -0.49806817 0.96776662 0.45995272
v 0.49806817 0.96776662 0.45995272
v 1.04977776 0.51727696 0.45471297
v 0.95022224 -0.28058462 0.46519246
v 0.49806817 -0.48136320 0.45995272
v -0.51400000 -0.19932912 -0.48517479
v -0.25600704 -0.29930139 -0.48517479
v -0.51400000 3.0934035e-3 -0.48517479
v -0.25600704 0.26108637 -0.48517479
v 0.25600704 0.26108637 -0.48517479
v 0.51400000 3.0934035e-3 -0.48517479
v 0.51400000 -0.19932912 -0.48517479
v 0.25600704 -0.29930139 -0.48517479
v -0.35729693 -0.14609337 1.15399896
v 0.35729693 -0.14609337 1.15399896
v 0.35729693 0.56850048 1.15399896
v -0.35729693 0.56850048 1.15399896
v -0.16602272 -0.48136320 0.45995272
v 0.16602272 -0.48136320 0.45995272
v -8.5335679e-2 -0.29930139 -0.48517479
v 8.5335679e-2 -0.29930139 -0.48517479
v 0.49806817 -0.48136320 6.2258773e-2
v 0.49806817 -0.48136320 -0.49304177
v -0.49806817 -0.48136320 -0.49304177
v -0.49806817 -0.48136320 6.2258773e-2
v 0.71938366 -0.31088841 -0.48637311
v 0.76916142 -0.31716839 6.3687687e-2
v -0.76916142 -0.31716839 6.3687687e-2
v -0.71938366 -0.31088841 -0.48637311
v 0.48700806 -0.83224502 -1.12296622
v 1.00450858 -0.83224502 -1.12296622
v 1.00450858 -0.83224502 1.05859346
v 0.48700806 -0.83224502 1.05859346
v -0.48700806 -0.83224502 1.05859346
v -1.00450858 -0.83224502 1.05859346
v -1.00450858 -0.83224502 -1.12296622
v -0.48700806 -0.83224502 -1.12296622
v 0.48700806 -0.96776662 -1.12296622
v 1.00450858 -0.96776662 -1.12296622
v 1.00450858 -0.96776662 1.05859346
v 0.48700806 -0.96776662 1.05859346
v -0.48700806 -0.96776662 1.05859346
v -1.00450858 -0.96776662 1.05859346
v -1.00450858 -0.96776662 -1.12296622
v -0.48700806 -0.96776662 -1.12296622
v -0.95022224 0.41439261 -0.21015175
v -0.49806817 0.96776662 -0.21539150
v 0.95022224 0.41439261 -0.21015175
v 0.49806817 0.96776662 -0.21539150
v -0.51400000 -0.19932912 -0.59735656
v -0.51400000 3.0934035e-3 -0.59735656
v -0.25600704 0.26108637 -0.59735656
v 0.25600704 0.26108637 -0.59735656
v 0.51400000 3.0934035e-3 -0.59735656
v 0.51400000 -0.19932912 -0.59735656
v 0.25600704 -0.29930139 -0.59735656
v 8.5335679e-2 -0.29930139 -0.59735656
v -8.5335679e-2 -0.29930139 -0.59735656
v -0.25600704 -0.29930139 -0.59735656
v -0.61877175 -0.46763455 -1.15399896
v -0.61877175 0.51007444 -1.15399896
v 0.61877175 0.51007444 -1.15399896
v 0.61877175 -0.46763455 -1.15399896
v -0.61877175 -0.46763455 -0.69155020
v -0.61877175 6.8678433e-2 -0.69172493
v -0.61877175 0.51007444 -0.68709739
v 0.61877175 0.51007444 -0.68709739
v 0.61877175 6.8678433e-2 -0.69172493
v 0.61877175 -0.46763455 -0.69155020
v 0.38291287 -0.46763455 -0.67570441
v 0.11880553 -0.46763455 -0.65934639
v -0.11880553 -0.46763455 -0.65934639
v -0.38291287 -0.46763455 -0.67570441
vn -0.76675473 -0.61056171 0.19824628
vn -0.27054181 -0.94771805 0.16922657
vn -0.93726692 0.28201268 0.20493798
vn -0.21458933 0.93840057 0.27084275
vn 0.32397958 0.90597837 0.27247096
vn 0.93726692 0.28201268 0.20493798
vn 0.71901905 -0.68075162 0.13996011
vn 0.19956661 -0.95108678 0.23581160
vn -0.64266583 -0.28283764 -0.71202774
vn 6.4481842e-2 -0.93889778 -0.33810214
vn -0.78200516 0.30906797 -0.54124387
vn -0.32118630 0.74239855 -0.58794877
vn 0.30971848 0.74247915 -0.59396900
vn 0.70914366 0.35375631 -0.60989487
vn 0.52318473 -0.35812176 -0.77332176
vn 1.9500647e-2 -0.92315360 -0.38393640
vn -0.31734009 -0.47219997 0.82238826
vn 0.31408795 -0.62339818 0.71604711
vn 0.25246436 0.48073651 0.83973457
vn -0.37644986 0.45829339 0.80514140
vn 3.5239919e-2 -0.98561617 0.16528435
vn -3.5167940e-2 -0.99779684 5.6255518e-2
vn 2.5474464e-2 -0.99373702 -0.10880163
vn -4.0830643e-2 -0.98984747 -0.13614277
vn -0.53123794 -0.84616769 4.2266930e-2
vn -0.66509079 0.24105153 -0.70678738
vn 0.68157991 0.17607981 -0.71024273
vn 0.51783472 -0.84945594 0.10135000
vn 0.47900178 0.24079281 -0.84414224
vn 0.98829442 -0.12581885 -8.6277172e-2
vn -0.94739455 -0.31388710 -6.2597625e-2
vn -0.62879158 0.35069932 -0.69399650
vn -0.83289862 0.19507649 -0.51790448
vn 0.44401277 0.59865551 -0.66668152
vn 0.67752465 0.48936993 0.54906960
vn -0.77116515 0.37592946 0.51379116
vn 0.84412345 0.21239790 0.49228318
vn -0.62187530 0.63775131 0.45447153
vn -0.54931446 0.43738889 -0.71200041
vn 0.75427207 0.34143739 -0.56079778
vn -0.57735027 -0.57735027 -0.57735027
vn 0.57735027 -0.57735027 -0.57735027
vn 0.57735027 -0.57735027 0.57735027
vn -0.57735027 -0.57735027 0.57735027
vn 0.57735027 -0.57735027 0.57735027
vn -0.57735027 -0.57735027 0.57735027
vn -0.57735027 -0.57735027 -0.57735027
vn 0.57735027 -0.57735027 -0.57735027
vn -0.69448023 0.16050334 -0.70138141
vn -0.42378206 0.74590458 -0.51384348
vn 0.82625501 0.13928932 -0.54580321
vn 0.31086959 0.72578773 -0.61367114
vn -0.71593837 -0.40849046 0.56618707
vn -0.84237975 0.23456925 0.48515320
vn -0.28040377 0.72175983 0.63280050
vn 0.33997157 0.73252222 0.58977159
vn 0.82724821 0.33625360 0.45010433
vn 0.71166722 -0.41965659 0.56339872
vn 0.14912852 -0.81627375 0.55808409
vn 8.8270256e-3 -0.82552872 0.56429108
vn 0.0000000e+0 -0.82023462 0.57202724
vn -0.14617018 -0.80726204 0.57180615
vn -0.40824829 -0.81649658 -0.40824829
vn -0.81649658 0.40824829 -0.40824829
vn 0.57735027 0.57735027 -0.57735027
vn 0.53452248 -0.80178373 -0.26726124
vn -0.55630642 -0.37027832 0.74392011
vn -0.94625669 -1.6396562e-3 0.32341241
vn -0.36918496 0.57221908 0.73230307
vn 0.47230073 0.50344818 0.72351362
vn 0.83791711 7.1118138e-2 0.54114427
vn 0.62943103 -0.47518414 0.61483056
vn 4.9911155e-2 -0.67302355 0.73793508
vn 1.4095622e-2 -0.89055852 0.45465024
vn -1.1256806e-2 -0.67542320 0.73734441
vn -3.5755500e-2 -0.83186856 0.55381969
g cube1_cockpit
usemtl cockpit
s 1
f 3//3 20//20 4//4
f 4//4 19//19 5//5
f 4//4 50//50 3//3
f 4//4 52//52 50//50
f 5//5 19//19 6//6
f 5//5 52//52 4//4
f 6//6 52//52 5//5
f 18//18 6//6 19//19
f 18//18 19//19 17//17
f 19//19 4//4 20//20
f 20//20 3//3 17//17
f 20//20 17//17 19//19
g cube1_feet
usemtl feet
s 1
f 25//25 35//35 30//30
f 26//26 33//33 25//25
f 27//27 39//39 32//32
f 28//28 37//37 27//27
f 29//29 34//34 26//26
f 30//30 35//35 29//29
f 31//31 38//38 28//28
f 32//32 38//38 31//31
f 33//33 26//26 34//34
f 33//33 44//44 36//36
f 34//34 29//29 35//35
f 34//34 42//42 33//33
f 35//35 25//25 36//36
f 35//35 42//42 34//34
f 36//36 25//25 33//33
f 36//36 44//44 35//35
f 37//37 28//28 38//38
f 37//37 48//48 40//40
f 38//38 32//32 39//39
f 38//38 46//46 37//37
f 39//39 27//27 40//40
f 39//39 46//46 38//38
f 40//40 27//27 37//37
f 40//40 48//48 39//39
f 41//41 33//33 42//42
f 41//41 44//44 33//33
f 42//42 35//35 43//43
f 42//42 44//44 41//41
f 43//43 35//35 44//44
f 43//43 44//44 42//42
f 45//45 37//37 46//46
f 45//45 48//48 37//37
f 46//46 39//39 47//47
f 46//46 48//48 45//45
f 47//47 39//39 48//48
f 47//47 48//48 46//46
g cube1_hull
usemtl hull
s 1
f 1//1 17//17 3//3
f 2//2 17//17 1//1
f 2//2 28//28 21//21
f 2//2 31//31 28//28
f 3//3 31//31 1//1
f 3//3 50//50 49//49
f 6//6 18//18 7//7
f 6//6 30//30 51//51
f 7//7 18//18 8//8
f 7//7 25//25 30//30
f 7//7 30//30 6//6
f 8//8 22//22 25//25
f 9//9 27//27 32//32
f 9//9 49//49 11//11
f 10//10 28//28 27//27
f 12//12 49//49 50//50
f 12//12 52//52 13//13
f 13//13 52//52 14//14
f 14//14 29//29 15//15
f 14//14 52//52 51//51
f 15//15 29//29 16//16
f 16//16 25//25 24//24
f 16//16 29//29 26//26
f 17//17 21//21 18//18
f 18//18 22//22 8//8
f 21//21 17//17 2//2
f 21//21 23//23 22//22
f 21//21 28//28 23//23
f 22//22 18//18 21//21
f 23//23 28//28 10//10
f 24//24 22//22 23//23
f 24//24 25//25 22//22
f 25//25 7//7 8//8
f 25//25 16//16 26//26
f 27//27 9//9 10//10
f 29//29 51//51 30//30
f 31//31 2//2 1//1
f 31//31 49//49 32//32
f 32//32 49//49 9//9
f 49//49 12//12 11//11
f 49//49 31//31 3//3
f 50//50 52//52 12//12
f 51//51 29//29 14//14
f 51//51 52//52 6//6
g cube1_rear
usemtl rear
s 1
f 9//9 62//62 10//10
f 10//10 62//62 23//23
f 11//11 54//54 9//9
f 12//12 54//54 11//11
f 13//13 56//56 12//12
f 14//14 56//56 13//13
f 15//15 58//58 14//14
f 16//16 58//58 15//15
f 23//23 60//60 24//24
f 24//24 60//60 16//16
f 53//53 9//9 54//54
f 53//53 62//62 9//9
f 53//53 67//67 62//62
f 54//54 12//12 55//55
f 54//54 67//67 53//53
f 54//54 69//69 68//68
f 55//55 12//12 56//56
f 55//55 69//69 54//54
f 56//56 14//14 57//57
f 56//56 69//69 55//55
f 56//56 71//71 70//70
f 57//57 14//14 58//58
f 57//57 71//71 56//56
f 58//58 16//16 59//59
f 58//58 71//71 57//57
f 58//58 73//73 72//72
f 59//59 16//16 60//60
f 59//59 73//73 58//58
f 60//60 23//23 61//61
f 60//60 73//73 59//59
f 60//60 75//75 74//74
f 61//61 23//23 62//62
f 61//61 75//75 60//60
f 62//62 67//67 76//76
f 62//62 75//75 61//61
f 63//63 68//68 64//64
f 63//63 76//76 67//67
f 64//64 65//65 63//63
f 64//64 68//68 69//69
f 64//64 69//69 65//65
f 65//65 69//69 70//70
f 65//65 71//71 66//66
f 66//66 63//63 65//65
f 66//66 71//71 72//72
f 66//66 74//74 63//63
f 67//67 68//68 63//63
f 68//68 67//67 54//54
f 70//70 69//69 56//56
f 70//70 71//71 65//65
f 72//72 71//71 58//58
f 72//72 73//73 66//66
f 74//74 66//66 73//73
f 74//74 73//73 60//60
f 75//75 63//63 74//74
f 76//76 63//63 75//75
f 76//76 75//75 62//62
